<?xml version="1.0" standalone="no"?>
<!DOCTYPE svg PUBLIC "-//W3C//DTD SVG 20010904//EN"
 "http://www.w3.org/TR/2001/REC-SVG-20010904/DTD/svg10.dtd">
<svg version="1.0" xmlns="http://www.w3.org/2000/svg"
 width="239.000000pt" height="233.000000pt" viewBox="0 0 239.000000 233.000000"
 preserveAspectRatio="xMidYMid meet">

<g transform="translate(0.000000,233.000000) scale(0.100000,-0.100000)"
fill="#000000" stroke="none">
<path d="M0 1165 l0 -1165 1195 0 1195 0 0 1165 0 1165 -1195 0 -1195 0 0
-1165z m1402 1011 c207 -48 394 -151 523 -287 35 -38 69 -69 74 -69 6 0 -6
-26 -25 -59 -22 -37 -37 -77 -41 -110 -4 -40 -10 -51 -24 -51 -26 0 -76 -46
-106 -98 -75 -128 7 -332 144 -358 41 -8 102 9 154 41 85 54 116 207 63 313
-30 61 -63 89 -121 105 -38 10 -43 15 -43 39 0 33 10 36 27 8 16 -24 57 -46
107 -55 44 -9 57 -32 80 -143 35 -166 30 -281 -20 -494 -43 -179 -170 -395
-293 -496 -161 -132 -270 -195 -416 -237 -263 -76 -456 -73 -680 10 -135 50
-198 85 -290 159 -171 140 -283 300 -351 506 -27 81 -28 94 -29 275 0 214 7
255 74 406 101 228 289 423 504 525 197 93 472 121 689 70z m744 -477 c3 -6
22 -18 42 -26 25 -11 32 -17 23 -26 -14 -14 -104 14 -141 43 l-25 20 47 0 c26
0 50 -5 54 -11z m-106 -164 c17 -9 39 -33 50 -55 38 -74 22 -165 -39 -224 -31
-30 -47 -39 -78 -40 -79 -2 -134 68 -135 169 -1 56 16 96 57 138 22 21 37 27
72 27 24 0 57 -7 73 -15z m87 -182 c-3 -10 -5 -2 -5 17 0 19 2 27 5 18 2 -10
2 -26 0 -35z"/>
<path d="M858 1928 c-61 -65 -88 -118 -88 -171 0 -43 -5 -56 -37 -95 -21 -25
-49 -68 -63 -96 -25 -50 -26 -51 -90 -64 -89 -17 -98 -28 -70 -83 l23 -43 -34
-28 c-18 -15 -31 -29 -28 -32 55 -52 93 -75 115 -70 19 5 24 2 24 -14 0 -66
60 -155 130 -192 35 -19 35 -19 8 -20 -15 0 -60 9 -100 19 -40 11 -95 22 -123
26 -64 8 -248 -18 -280 -39 -55 -36 -16 -87 96 -129 41 -16 48 -23 53 -52 5
-27 13 -36 34 -42 15 -3 53 -22 86 -41 54 -32 62 -34 91 -23 43 15 50 14 106
-11 54 -25 61 -44 28 -74 -52 -46 -61 -122 -26 -223 18 -53 28 -67 57 -83 42
-22 117 -23 184 -3 60 18 224 12 304 -12 70 -20 153 -14 192 15 18 14 44 22
68 22 103 0 246 54 318 119 57 51 144 164 144 186 0 27 -30 55 -59 55 -42 0
-122 -42 -133 -69 -9 -25 -10 -25 -23 -8 -12 17 -17 18 -50 6 -20 -8 -41 -19
-47 -26 -7 -9 -18 -4 -43 23 -26 27 -39 34 -54 29 -34 -11 -25 22 11 41 22 11
44 14 75 10 37 -5 51 -1 86 21 23 15 69 36 102 48 51 18 61 25 68 52 8 27 18
34 83 58 81 30 97 43 92 77 -4 31 -41 47 -146 64 -178 29 -308 14 -429 -50
-52 -28 -63 -31 -66 -17 -2 9 18 37 47 66 28 28 59 65 69 84 17 32 19 33 62
27 38 -6 45 -4 55 14 6 12 9 34 5 49 -7 33 14 61 46 61 10 0 19 6 19 14 0 14
-7 22 -46 55 -17 14 -15 33 7 88 18 44 0 61 -69 70 -48 5 -53 9 -78 50 -14 24
-39 59 -56 78 l-30 35 21 43 c31 64 29 150 -4 182 -27 28 -35 29 -87 15 -38
-11 -101 -72 -113 -109 -3 -12 -13 -21 -21 -21 -22 0 -82 27 -111 50 -34 27
-71 25 -115 -5 -20 -14 -39 -25 -42 -25 -3 0 -4 23 -4 52 1 44 -2 54 -26 75
-39 33 -80 30 -118 -9z m80 -56 c3 -18 -2 -22 -22 -22 -32 0 -40 14 -20 35 21
20 38 15 42 -13z m513 -45 c8 -30 3 -57 -11 -57 -4 0 -10 10 -13 21 -5 17 -11
20 -31 15 -32 -8 -33 1 -4 31 28 30 49 26 59 -10z m-545 -2 c19 -15 18 -16 -9
-40 -15 -14 -35 -25 -43 -25 -16 0 -19 33 -4 61 13 23 29 24 56 4z m238 -50
c11 -16 27 -24 63 -27 111 -12 271 -128 296 -216 l14 -47 71 -9 c40 -5 72 -12
72 -16 0 -17 -31 -31 -84 -38 -31 -4 -57 -11 -57 -17 1 -5 26 -12 57 -15 47
-4 58 -9 65 -27 11 -31 -3 -36 -68 -28 -69 8 -69 -8 0 -45 28 -15 47 -32 47
-42 0 -25 -13 -22 -48 7 -38 32 -42 31 -42 -2 0 -40 -42 -123 -81 -160 -41
-38 -123 -76 -202 -93 l-57 -11 -53 41 c-48 39 -56 42 -100 37 -29 -2 -61 -14
-84 -30 l-36 -26 -59 30 c-66 33 -142 98 -163 140 -61 117 -12 340 99 454 63
64 117 93 205 109 49 9 65 16 63 28 -2 16 36 38 55 31 6 -3 19 -15 27 -28z
m236 0 c7 -8 19 -15 26 -15 16 0 19 -16 4 -25 -11 -7 -70 21 -70 34 0 23 23
27 40 6z m-760 -341 c0 -9 -7 -14 -17 -12 -25 5 -28 28 -4 28 12 0 21 -6 21
-16z m-10 -79 c0 -28 -4 -35 -20 -35 -24 0 -26 13 -5 30 8 7 15 19 15 26 0 8
2 14 5 14 3 0 5 -16 5 -35z m480 -371 c46 -42 49 -55 17 -81 -47 -37 -57 -78
-32 -127 8 -15 15 -30 15 -32 0 -2 -18 -4 -40 -4 -53 0 -83 29 -104 102 -19
66 -20 88 -3 108 14 18 88 70 99 70 5 0 26 -16 48 -36z m-447 2 c24 -10 37
-22 37 -34 0 -30 -13 -35 -30 -11 -14 18 -26 21 -92 21 -44 0 -90 -7 -112 -16
-34 -14 -41 -14 -83 3 -26 10 -49 23 -51 29 -10 32 258 39 331 8z m1340 9 c25
-11 21 -24 -10 -31 -16 -4 -46 -15 -69 -26 -40 -18 -41 -18 -85 1 -31 15 -66
21 -116 21 -64 0 -77 -3 -117 -30 -79 -54 -138 -62 -121 -18 7 18 130 76 190
88 46 10 301 6 328 -5z m-596 -58 c88 -129 134 -318 104 -426 -7 -24 -7 -24
-31 15 l-25 39 -5 -76 c-3 -42 -11 -83 -18 -91 -18 -22 -111 -31 -138 -14 -29
20 -54 76 -54 124 0 33 6 45 31 66 17 14 39 26 49 26 31 0 33 19 4 30 -41 16
-90 -4 -120 -50 -26 -40 -32 -73 -20 -127 l8 -33 -54 0 c-29 0 -71 5 -92 11
-50 14 -132 82 -157 131 -24 46 -35 138 -20 165 16 31 59 38 85 15 51 -47 114
-55 167 -23 28 17 36 18 63 7 17 -7 38 -10 46 -6 8 4 36 17 63 29 56 25 67 58
15 44 -18 -4 -59 -8 -91 -8 -50 0 -62 4 -78 24 -10 13 -19 27 -19 32 0 13 32
27 96 44 31 8 59 17 62 20 3 3 -3 14 -13 25 -20 22 -15 26 40 33 72 9 80 7
102 -26z m-575 17 c23 -4 35 -11 32 -19 -3 -7 3 -15 14 -17 14 -4 22 -20 29
-59 17 -86 5 -89 -85 -23 -60 46 -81 77 -68 109 6 16 21 18 78 9z m-238 -33
c6 -9 -66 -91 -81 -91 -14 0 -68 59 -60 66 8 8 95 32 119 33 9 1 19 -3 22 -8z
m1235 -9 c56 -28 50 -49 -21 -66 -21 -5 -35 0 -63 25 -19 17 -35 37 -35 45 0
20 77 18 119 -4z m-1109 -63 c28 -34 49 -64 46 -67 -3 -2 -26 1 -50 8 -27 7
-63 10 -91 6 -34 -6 -45 -4 -45 6 0 23 64 108 81 108 5 0 31 -28 59 -61z m967
13 c48 -63 44 -72 -25 -72 -36 0 -66 -6 -80 -16 -22 -15 -23 -14 -37 20 -8 19
-15 39 -15 43 0 12 93 71 110 70 8 -1 29 -22 47 -45z m243 -217 c-7 -8 -16
-15 -21 -15 -14 0 -11 38 4 43 20 7 31 -11 17 -28z m-314 -76 c21 -42 74 -41
104 1 12 17 29 30 37 30 14 0 14 -2 0 -18 -10 -10 -17 -21 -17 -24 0 -8 82 21
97 34 21 17 16 -19 -5 -40 -61 -61 -175 -119 -237 -122 -94 -4 -101 0 -61 43
16 17 26 43 30 81 8 61 25 66 52 15z m-796 18 c0 -27 43 -94 87 -134 26 -23
44 -45 40 -49 -4 -4 -29 -9 -57 -12 -45 -4 -50 -3 -50 16 0 12 -8 23 -19 27
-23 7 -51 62 -51 101 0 26 24 64 42 64 4 0 8 -6 8 -13z m870 -7 c8 -5 11 -12
8 -16 -10 -9 -38 3 -38 16 0 12 10 13 30 0z"/>
<path d="M1080 1690 c0 -22 8 -25 30 -10 13 9 13 11 0 20 -22 15 -30 12 -30
-10z"/>
<path d="M986 1681 c-7 -11 3 -41 14 -41 14 0 21 17 14 34 -7 18 -20 21 -28 7z"/>
<path d="M1203 1509 c-69 -44 -80 -135 -22 -183 49 -42 119 -34 172 19 32 33
33 55 8 112 -32 69 -98 91 -158 52z m62 -54 c0 -23 -5 -30 -19 -30 -24 0 -41
27 -33 49 4 11 15 16 29 14 18 -2 23 -9 23 -33z"/>
<path d="M787 1499 c-30 -17 -47 -70 -37 -112 11 -53 27 -67 70 -67 43 0 59
15 70 65 20 88 -38 151 -103 114z m60 -53 c-4 -9 -11 -16 -17 -16 -11 0 -14
33 -3 44 11 10 26 -11 20 -28z"/>
<path d="M923 1303 c-8 -21 39 -63 71 -63 31 0 76 36 76 61 0 27 -21 24 -46
-8 l-22 -28 -29 28 c-34 31 -41 33 -50 10z"/>
</g>
</svg>
